<svg width="40" height="40" viewBox="0 0 40 40" fill="none" xmlns="http://www.w3.org/2000/svg">
<rect width="40" height="40" rx="4" fill="#0000FF"/>
<g clip-path="url(#clip0_2015_315)">
<path d="M28.05 19H11.95C11.4253 19 11 19.4253 11 19.95V20.05C11 20.5747 11.4253 21 11.95 21H28.05C28.5747 21 29 20.5747 29 20.05V19.95C29 19.4253 28.5747 19 28.05 19Z" fill="white"/>
<path d="M28.05 24H11.95C11.4253 24 11 24.4253 11 24.95V25.05C11 25.5747 11.4253 26 11.95 26H28.05C28.5747 26 29 25.5747 29 25.05V24.95C29 24.4253 28.5747 24 28.05 24Z" fill="white"/>
<path d="M28.05 14H11.95C11.4253 14 11 14.4253 11 14.95V15.05C11 15.5747 11.4253 16 11.95 16H28.05C28.5747 16 29 15.5747 29 15.05V14.95C29 14.4253 28.5747 14 28.05 14Z" fill="white"/>
</g>
<defs>
<clipPath id="clip0_2015_315">
<rect width="24" height="24" fill="white" transform="translate(8 8)"/>
</clipPath>
</defs>
</svg>
